<svg xmlns="http://www.w3.org/2000/svg" fill="none" viewBox="0 0 1000 1000"><g clip-path="url(#A)"><g clip-path="url(#B)"><path fill="#fff" d="M499.5 114.7C280.1 114.7 100 289.3 100 504.4c0 220 185.1 389.7 404.5 389.7 209.4 0 399.5-175.1 399.5-389.7C904 294.6 713.5 114.7 499.5 114.7Zm104.5 584.5h-89.1V470.7c0-15.6-2.3-28.9-7-39.8s-11.9-19.5-21.8-25.7c-9.9-6.2-22.6-9.3-38.1-9.3-22.9 0-40.1 6.7-51.3 20s-16.8 31.6-16.8 54.9v228.4h-89.1V316.2h89.1v32.9c12.7-14.7 28.9-25.3 48.9-31.8 19.9-6.5 41.6-9.7 65.1-9.7 22.4 0 41.9 3.6 58.5 10.7 16.6 7.1 29.8 17.9 39.6 32.4 9.8 14.5 14.7 33 14.7 55.5v288.1Z"/></g></g><defs><clipPath id="A"><path fill="#fff" d="M0 0h1000v1000H0z"/></clipPath><clipPath id="B"><path fill="#fff" d="M100 114.7h804v779H100z"/></clipPath></defs></svg>
