<svg width="283" height="64" fill="none" xmlns="http://www.w3.org/2000/svg"><path fill-rule="evenodd" clip-rule="evenodd" d="M141.04 16c-11.04 0-19 7.2-19 18s8.96 18 20 18c9.92 0 18.05-7.2 18.05-18S150.96 16 141.04 16zm-25.95 17.5c0-10.44 7.62-18.5 18.96-18.5s19.95 8.06 19.95 18.5c0 10.45-8.61 18.5-19.95 18.5s-18.96-8.05-18.96-18.5zM200 16c-11.04 0-19 7.2-19 18s8.96 18 20 18c9.92 0 18.05-7.2 18.05-18S209.92 16 200 16zm-25.95 17.5c0-10.44 7.62-18.5 18.96-18.5s19.95 8.06 19.95 18.5c0 10.45-8.61 18.5-19.95 18.5s-18.96-8.05-18.96-18.5zM258.96 16c-11.04 0-19 7.2-19 18s8.96 18 20 18c9.92 0 18.05-7.2 18.05-18S268.88 16 258.96 16zm-25.95 17.5c0-10.44 7.62-18.5 18.96-18.5s19.95 8.06 19.95 18.5c0 10.45-8.61 18.5-19.95 18.5s-18.96-8.05-18.96-18.5zM81.92 16c-11.04 0-19 7.2-19 18s8.96 18 20 18c9.92 0 18.05-7.2 18.05-18S91.84 16 81.92 16zM56 33.5c0-10.44 7.62-18.5 18.96-18.5s19.95 8.06 19.95 18.5c0 10.45-8.61 18.5-19.95 18.5S56 43.95 56 33.5zM24.96 0l24.96 42.5H0L24.96 0z" fill="#fff"/></svg>
